<?xml version="1.0" encoding="UTF-8"?>
<!DOCTYPE svg PUBLIC "-//W3C//DTD SVG 1.1//EN" "http://www.w3.org/Graphics/SVG/1.1/DTD/svg11.dtd">
<!-- Creator: CorelDRAW X7 -->
<svg xmlns="http://www.w3.org/2000/svg" xml:space="preserve" width="180mm" height="40mm" version="1.1" style="shape-rendering:geometricPrecision; text-rendering:geometricPrecision; image-rendering:optimizeQuality; fill-rule:evenodd; clip-rule:evenodd"
viewBox="0 0 18000 4000"
 xmlns:xlink="http://www.w3.org/1999/xlink">
 <defs>
  <style type="text/css">
   <![CDATA[
    .fil0 {fill:#323333}
    .fil2 {fill:#323333}
    .fil3 {fill:#323333;fill-rule:nonzero}
    .fil1 {fill:#FF8000;fill-rule:nonzero}
   ]]>
  </style>
 </defs>
 <g id="Capa_x0020_1">
  <metadata id="CorelCorpID_0Corel-Layer"/>
  <g id="_2072633177216">
   <g>
    <path class="fil0" d="M4246 1825c104,44 205,100 288,170 106,90 188,199 247,325 61,130 89,270 89,413 0,301 -111,557 -330,764 -239,226 -547,309 -871,309l-1442 0 0 -1611c150,6 341,6 501,30l0 1080 760 0c153,0 377,-7 520,-68 102,-43 184,-109 247,-201 61,-89 92,-187 92,-295 0,-133 -43,-247 -129,-347 -98,-111 -228,-175 -370,-209 -73,-17 -154,-24 -228,-29 -467,-31 -975,-50 -1451,-53 -3,-17 -7,-34 -11,-51 -9,-39 -19,-79 -28,-119 -1,-15 0,-38 2,-53 9,-37 17,-75 26,-112 5,-21 9,-42 14,-64 433,-5 1356,-39 1582,-130 94,-38 172,-97 230,-181 57,-83 85,-173 85,-273 0,-124 -38,-230 -135,-309 -120,-98 -326,-116 -474,-116l-732 0 0 856c-172,26 -339,27 -501,36l0 -1393 1177 0c212,0 467,18 663,105 162,71 291,182 384,331 94,150 140,313 140,490 0,164 -40,319 -124,460 -58,97 -133,178 -221,245z"/>
    <path class="fil1" d="M206 1910l0 0c0,10 152,87 256,87 111,0 483,0 483,0 87,119 304,604 370,648 15,10 106,22 106,22l-108 -658 591 -48c8,21 24,53 41,79 60,89 114,188 129,198 15,10 49,5 55,0 5,-3 -41,-201 -63,-294 -1,-7 0,-68 2,-76 23,-96 66,-282 61,-286 -6,-5 -40,-10 -55,0 -15,10 -69,109 -129,198 -17,26 -33,59 -41,79l-591 -47 108 -659c0,0 -91,13 -106,22 -66,45 -283,530 -370,648 0,0 -372,0 -483,0 -104,0 -256,77 -256,87l0 0z"/>
   </g>
   <g>
    <path class="fil2" d="M6507 1493c46,22 91,48 128,80 56,47 99,104 130,171 32,68 47,142 47,217 0,158 -59,292 -173,401 -125,118 -286,162 -455,162l-752 0 0 -1875 616 0c111,0 243,10 345,55 85,38 154,96 203,175 49,79 74,165 74,258 0,87 -22,168 -66,243 -26,44 -59,81 -97,113zm1153 -443c214,0 397,78 541,236 130,144 194,316 194,510 0,198 -70,370 -205,514 -143,153 -323,222 -530,222 -208,0 -388,-69 -530,-222 -135,-144 -205,-316 -205,-514 0,-194 64,-365 194,-508 144,-160 327,-238 541,-238zm1609 82l51 29 -142 229c-97,-102 -344,-59 -360,152 -6,83 -7,406 -7,489l0 498 -285 0 0 -1050 1 -4c13,-345 486,-492 742,-343zm1223 91l0 -643 280 0 0 1295 0 3c-17,133 -68,258 -136,372l-3 5 -3 4c-78,87 -170,160 -277,207 -102,45 -210,66 -322,66 -201,0 -374,-73 -515,-216 -142,-144 -214,-319 -214,-521 0,-204 70,-381 212,-527 141,-143 312,-218 513,-218 108,0 213,22 311,70 56,27 107,62 154,103zm736 638c12,105 50,199 126,277 83,87 184,129 304,129 60,0 118,-11 174,-32 51,-19 101,-46 142,-82 51,-44 97,-114 132,-171l28 -47 236 127 -24 49c-44,88 -99,170 -172,237 -66,59 -141,106 -224,137 -88,34 -183,47 -277,47 -211,0 -401,-65 -541,-228 -126,-146 -193,-315 -193,-508 0,-177 55,-337 164,-477 141,-181 332,-269 561,-269 235,0 430,90 576,275 109,139 153,304 154,479l1 57 -1167 0zm-5510 -926l0 450 256 0c72,0 180,-3 247,-30 46,-18 83,-46 111,-87 28,-40 41,-83 41,-131 0,-59 -18,-108 -63,-146 -59,-48 -161,-56 -233,-56l-359 0zm0 741l0 562 373 0c76,0 189,-4 260,-33 50,-22 89,-53 120,-98 29,-43 44,-90 44,-142 0,-64 -20,-119 -62,-167 -48,-55 -112,-86 -181,-102 -36,-9 -77,-12 -114,-15 -62,-4 -124,-5 -185,-5l-255 0zm1942 -348c-126,0 -229,47 -317,137 -90,93 -133,204 -133,333 0,85 20,164 61,237 39,71 93,127 163,167 70,40 146,58 226,58 81,0 157,-18 228,-58 70,-40 123,-96 162,-167 40,-73 60,-152 60,-237 0,-129 -43,-240 -134,-333 -87,-90 -190,-137 -316,-137zm2386 930c127,0 235,-44 325,-135 92,-94 133,-207 133,-339 0,-84 -18,-165 -59,-239 -41,-72 -97,-126 -169,-167 -72,-41 -150,-62 -233,-62 -81,0 -156,21 -226,62 -73,42 -128,101 -169,175 -41,73 -64,152 -64,236 0,84 22,162 63,236 41,72 96,130 168,171 71,42 148,62 231,62zm2032 -654c-16,-44 -37,-87 -65,-122 -40,-50 -92,-87 -150,-114 -62,-29 -128,-44 -198,-44 -111,0 -208,35 -290,109 -51,46 -86,107 -111,171l814 0zm1194 -468l51 29 -142 229c-97,-102 -344,-60 -360,152 -6,83 -7,405 -7,489l0 497 -285 0 0 -1049 1 -5c13,-344 486,-491 742,-342zm109 -473l594 0c148,0 262,18 341,53 80,35 143,89 189,162 46,74 69,154 69,242 0,84 -21,159 -61,227 -41,68 -101,123 -180,165 98,34 173,73 226,117 52,44 92,97 122,161 29,62 44,131 44,205 0,150 -55,277 -165,381 -110,104 -257,156 -441,156l-738 0 0 -1869zm183 183l0 598 332 0c129,0 224,-12 285,-36 61,-25 109,-63 145,-114 36,-52 54,-110 54,-174 0,-85 -30,-153 -90,-202 -60,-48 -155,-72 -285,-72l-441 0zm0 786l0 717 456 0c136,0 236,-13 299,-40 64,-27 115,-69 154,-125 38,-56 58,-118 58,-185 0,-82 -27,-155 -82,-217 -54,-62 -128,-105 -223,-127 -64,-16 -175,-23 -332,-23l-330 0zm2121 -543c213,0 389,77 530,230 126,142 190,308 190,501 0,192 -67,361 -202,504 -134,145 -307,217 -518,217 -212,0 -384,-72 -518,-217 -135,-143 -201,-312 -201,-504 0,-192 63,-358 190,-499 140,-155 316,-232 529,-232zm0 174c-147,0 -273,54 -379,164 -106,109 -159,241 -159,395 0,100 24,194 72,281 49,87 114,153 197,200 82,47 172,70 269,70 99,0 190,-23 272,-70 82,-47 147,-113 195,-200 48,-87 72,-181 72,-281 0,-154 -53,-286 -160,-395 -105,-110 -232,-164 -379,-164zm891 -106l213 0 366 513 367 -513 213 0 -474 657 533 725 -216 0 -423 -581 -417 581 -212 0 523 -725 -473 -657z"/>
    <g>
     <path class="fil3" d="M7126 3186c0,38 -5,72 -14,100 -10,29 -25,53 -43,71 -19,19 -42,33 -69,42 -28,10 -60,14 -98,14l-94 0c-5,0 -10,-1 -14,-5 -5,-3 -7,-10 -7,-18l0 -395c0,-8 2,-15 7,-18 4,-4 9,-5 14,-5l100 0c39,0 71,4 97,14 27,10 49,25 67,43 18,19 31,41 40,68 10,26 14,56 14,89zm-61 3c0,-24 -3,-47 -9,-67 -6,-21 -15,-39 -28,-54 -13,-15 -29,-26 -48,-35 -19,-8 -44,-12 -75,-12l-60 0 0 344 61 0c28,0 52,-4 71,-11 20,-7 36,-18 49,-32 13,-15 23,-33 29,-55 7,-22 10,-48 10,-78zm516 200c0,4 0,8 -1,11 0,3 -1,6 -2,8 -1,2 -2,3 -4,4 -1,1 -3,1 -5,1l-212 0c-5,0 -10,-1 -15,-5 -5,-3 -7,-10 -7,-18l0 -395c0,-8 2,-15 7,-18 5,-4 10,-5 15,-5l210 0c2,0 3,0 5,1 1,1 2,2 3,4 1,3 2,5 3,8 0,3 0,7 0,12 0,4 0,7 0,10 -1,3 -2,6 -3,8 -1,2 -2,3 -3,4 -2,1 -3,2 -5,2l-173 0 0 138 148 0c2,0 4,0 5,1 2,2 3,3 4,5 1,2 2,4 2,7 1,4 1,7 1,12 0,4 0,7 -1,10 0,3 -1,6 -2,7 -1,2 -2,4 -4,4 -1,1 -3,2 -5,2l-148 0 0 158 175 0c2,0 4,0 5,1 2,1 3,2 4,4 1,2 2,5 2,8 1,3 1,7 1,11zm443 -1c0,4 0,8 0,11 -1,3 -2,6 -3,8 -1,2 -2,4 -3,5 -2,1 -4,1 -6,1l-195 0c-5,0 -10,-1 -15,-5 -5,-3 -7,-10 -7,-18l0 -410c0,-1 0,-3 1,-4 1,-2 3,-3 5,-4 2,0 5,-1 9,-2 4,0 9,-1 14,-1 6,0 11,1 15,1 3,1 6,2 9,2 2,1 3,2 4,4 1,1 2,3 2,4l0 382 158 0c2,0 4,1 6,2 1,1 2,2 3,4 1,2 2,5 3,8 0,3 0,7 0,12zm822 17c0,1 -1,3 -2,4 -1,2 -2,3 -5,4 -2,0 -5,1 -9,2 -3,0 -8,1 -14,1 -5,0 -10,-1 -14,-1 -4,-1 -7,-2 -9,-2 -2,-1 -4,-2 -5,-4 -1,-1 -1,-3 -1,-4l0 -385 -1 0 -155 386c-1,2 -2,3 -3,4 -1,2 -3,3 -6,3 -2,1 -5,2 -8,2 -4,0 -7,1 -12,1 -5,0 -9,-1 -12,-1 -4,-1 -7,-1 -9,-2 -2,-1 -4,-2 -5,-3 -1,-1 -2,-2 -3,-4l-149 -386 0 0 0 385c0,1 0,3 -1,4 -1,2 -3,3 -5,4 -3,0 -6,1 -9,2 -4,0 -9,1 -15,1 -6,0 -10,-1 -14,-1 -4,-1 -7,-2 -9,-2 -2,-1 -4,-2 -4,-4 -1,-1 -2,-3 -2,-4l0 -407c0,-9 3,-16 8,-20 5,-4 11,-6 17,-6l36 0c7,0 14,0 19,2 6,1 11,3 15,6 4,3 8,7 10,11 3,5 6,10 8,16l126 320 2 0 131 -319c3,-6 5,-12 8,-17 3,-5 7,-9 10,-11 4,-3 8,-5 12,-7 5,-1 10,-1 15,-1l38 0c4,0 7,0 10,1 3,1 6,3 8,5 2,2 4,5 6,8 1,3 2,8 2,12l0 407zm568 -155c0,27 -4,51 -12,72 -8,21 -19,39 -34,53 -14,15 -32,26 -53,33 -21,8 -45,12 -71,12 -25,0 -47,-4 -67,-11 -20,-7 -37,-17 -51,-31 -15,-14 -26,-31 -34,-52 -7,-20 -11,-44 -11,-71l0 -275c0,-1 0,-3 1,-4 1,-2 3,-3 5,-4 2,0 5,-1 9,-2 4,0 8,-1 14,-1 6,0 11,1 14,1 4,1 7,2 10,2 2,1 3,2 4,4 1,1 2,3 2,4l0 267c0,21 2,39 7,54 5,15 12,28 22,38 9,10 20,18 34,23 13,5 28,7 44,7 17,0 33,-2 46,-7 13,-5 24,-13 33,-23 10,-10 17,-22 22,-37 4,-15 7,-32 7,-52l0 -270c0,-1 0,-3 1,-4 1,-2 3,-3 5,-4 2,0 5,-1 9,-2 4,0 9,-1 14,-1 6,0 11,1 14,1 4,1 7,2 9,2 2,1 4,2 5,4 1,1 2,3 2,4l0 270zm569 139c0,4 -1,8 -3,12 -1,3 -3,5 -5,7 -3,2 -6,4 -9,5 -3,1 -6,1 -9,1l-19 0c-6,0 -12,0 -16,-2 -5,-1 -9,-3 -14,-6 -4,-4 -8,-8 -12,-14 -4,-5 -8,-13 -13,-22l-135 -251c-7,-13 -14,-26 -21,-41 -8,-14 -14,-28 -20,-41l-1 0c0,16 1,33 1,50 0,17 0,34 0,51l0 267c0,1 0,3 -1,4 -1,2 -3,3 -5,4 -2,0 -5,1 -9,2 -4,0 -8,1 -14,1 -6,0 -11,-1 -14,-1 -4,-1 -7,-2 -9,-2 -2,-1 -4,-2 -5,-4 -1,-1 -1,-3 -1,-4l0 -408c0,-9 2,-16 7,-20 6,-3 11,-5 17,-5l29 0c7,0 13,0 17,1 5,1 9,3 13,6 3,2 7,6 10,11 4,5 7,10 11,17l104 194c6,12 12,24 18,35 6,11 12,22 17,33 6,11 11,22 17,33 5,10 10,21 16,32l0 0c0,-18 -1,-37 -1,-57 0,-19 0,-38 0,-56l0 -239c0,-2 1,-3 1,-5 2,-1 3,-2 5,-3 3,-1 6,-2 9,-2 4,-1 9,-1 15,-1 5,0 10,0 14,1 4,0 7,1 9,2 2,1 3,2 4,3 1,2 2,3 2,5l0 407zm575 -203c0,38 -5,72 -15,100 -9,29 -24,53 -42,71 -19,19 -42,33 -69,42 -28,10 -60,14 -98,14l-94 0c-5,0 -10,-1 -15,-5 -4,-3 -7,-10 -7,-18l0 -395c0,-8 3,-15 7,-18 5,-4 10,-5 15,-5l100 0c39,0 71,4 97,14 27,10 49,25 67,43 18,19 31,41 40,68 10,26 14,56 14,89zm-61 3c0,-24 -3,-47 -9,-67 -6,-21 -15,-39 -28,-54 -13,-15 -29,-26 -48,-35 -20,-8 -44,-12 -75,-12l-60 0 0 344 61 0c28,0 52,-4 71,-11 19,-7 36,-18 49,-32 13,-15 22,-33 29,-55 6,-22 10,-48 10,-78zm640 -2c0,36 -4,68 -13,97 -8,29 -21,53 -38,73 -16,20 -37,36 -63,47 -25,10 -54,16 -88,16 -33,0 -62,-5 -86,-15 -24,-10 -44,-24 -60,-43 -16,-19 -28,-43 -36,-71 -7,-28 -11,-60 -11,-96 0,-35 4,-67 12,-95 9,-28 21,-53 38,-72 17,-20 38,-36 63,-47 26,-10 55,-16 89,-16 32,0 61,5 85,15 24,10 44,24 60,43 16,19 28,42 36,69 8,28 12,60 12,95zm-62 4c0,-24 -3,-48 -7,-69 -5,-22 -12,-40 -22,-56 -11,-16 -24,-28 -42,-37 -17,-9 -38,-13 -64,-13 -25,0 -47,4 -64,14 -17,10 -31,22 -42,38 -11,16 -18,35 -23,56 -5,21 -7,43 -7,67 0,26 2,50 7,71 4,22 11,41 21,57 10,16 24,28 41,37 17,8 39,13 65,13 26,0 47,-5 65,-15 17,-9 31,-22 42,-38 11,-17 18,-35 23,-57 4,-21 7,-44 7,-68zm762 202c2,5 3,9 3,12 0,3 -1,5 -2,7 -2,1 -5,2 -10,3 -4,0 -9,1 -16,1 -7,0 -13,-1 -17,-1 -5,0 -8,-1 -10,-2 -2,0 -4,-2 -5,-3 -1,-1 -2,-3 -3,-5l-37 -108 -184 0 -36 107c-1,2 -2,3 -3,5 -1,1 -3,3 -5,4 -2,1 -5,1 -9,2 -4,0 -9,1 -16,1 -6,0 -12,-1 -16,-1 -4,-1 -7,-2 -9,-4 -2,-1 -2,-3 -2,-7 0,-3 1,-7 3,-12l148 -410c1,-3 2,-5 3,-6 2,-2 4,-3 7,-4 3,-1 6,-2 11,-2 4,0 10,-1 17,-1 7,0 13,1 18,1 5,0 8,1 11,2 3,1 6,2 7,4 2,2 3,4 4,6l148 411zm-190 -363l0 0 -76 221 153 0 -77 -221zm817 -33c0,4 0,8 0,11 -1,3 -2,6 -3,8 -1,2 -2,3 -3,4 -2,1 -4,1 -5,1l-124 0 0 384c0,1 -1,3 -2,4 -1,2 -2,3 -5,4 -2,0 -5,1 -9,2 -3,0 -8,1 -14,1 -5,0 -10,-1 -14,-1 -4,-1 -7,-2 -9,-2 -2,-1 -4,-2 -5,-4 -1,-1 -1,-3 -1,-4l0 -384 -124 0c-2,0 -4,0 -5,-1 -2,-1 -3,-2 -4,-4 -1,-2 -1,-5 -2,-8 0,-3 -1,-7 -1,-11 0,-5 1,-8 1,-12 1,-3 1,-6 2,-8 1,-2 2,-3 4,-4 1,-1 3,-1 5,-1l307 0c1,0 3,0 5,1 1,1 2,2 3,4 1,2 2,5 3,8 0,4 0,7 0,12zm515 253c0,27 -4,51 -12,72 -8,21 -19,39 -34,53 -14,15 -32,26 -53,33 -21,8 -45,12 -71,12 -25,0 -47,-4 -67,-11 -20,-7 -37,-17 -51,-31 -15,-14 -26,-31 -33,-52 -8,-20 -12,-44 -12,-71l0 -275c0,-1 0,-3 1,-4 1,-2 3,-3 5,-4 2,0 5,-1 9,-2 4,0 8,-1 14,-1 6,0 11,1 14,1 4,1 7,2 10,2 2,1 3,2 4,4 1,1 2,3 2,4l0 267c0,21 2,39 7,54 5,15 12,28 22,38 9,10 20,18 34,23 13,5 28,7 45,7 16,0 32,-2 45,-7 13,-5 24,-13 34,-23 9,-10 16,-22 21,-37 5,-15 7,-32 7,-52l0 -270c0,-1 0,-3 1,-4 1,-2 3,-3 5,-4 2,0 5,-1 9,-2 4,0 9,-1 15,-1 5,0 10,1 13,1 4,1 7,2 9,2 2,1 4,2 5,4 1,1 2,3 2,4l0 270zm472 39c0,21 -3,40 -11,56 -8,16 -18,30 -32,41 -13,11 -29,20 -48,25 -18,6 -38,9 -59,9 -15,0 -28,-2 -41,-4 -13,-3 -24,-6 -34,-9 -10,-4 -18,-8 -25,-12 -7,-4 -11,-7 -14,-10 -3,-2 -4,-6 -6,-10 -1,-4 -2,-10 -2,-17 0,-5 1,-9 1,-12 1,-4 1,-6 2,-8 1,-2 2,-4 4,-4 1,-1 3,-2 4,-2 4,0 8,2 14,6 6,4 13,8 22,13 9,4 20,8 33,12 13,4 28,6 45,6 13,0 24,-1 35,-5 10,-3 20,-8 27,-14 8,-6 14,-14 18,-23 4,-9 6,-20 6,-31 0,-13 -3,-23 -9,-32 -5,-9 -13,-17 -22,-24 -10,-6 -20,-12 -32,-18 -12,-6 -24,-11 -37,-17 -12,-6 -24,-12 -36,-19 -12,-7 -23,-16 -32,-25 -9,-10 -17,-21 -23,-34 -5,-13 -8,-28 -8,-46 0,-19 3,-35 10,-49 6,-15 16,-27 28,-37 12,-9 26,-17 42,-22 17,-5 34,-8 54,-8 9,0 19,1 29,3 10,2 19,4 28,7 9,3 17,6 23,9 7,4 12,7 14,9 2,2 3,4 4,5 1,1 1,3 2,5 0,2 1,4 1,7 0,2 0,6 0,10 0,4 0,8 0,11 -1,4 -1,6 -2,8 0,3 -2,4 -3,5 -1,1 -2,2 -4,2 -3,0 -6,-2 -12,-5 -5,-3 -12,-7 -19,-11 -8,-4 -17,-7 -28,-11 -10,-3 -22,-5 -36,-5 -12,0 -23,2 -32,5 -9,4 -16,8 -22,13 -6,6 -11,12 -14,20 -2,7 -4,15 -4,24 0,12 3,22 9,31 5,9 13,17 22,24 10,7 21,13 33,19 12,5 24,11 37,17 12,6 24,12 36,19 13,7 23,15 33,24 9,10 17,21 23,34 5,13 8,28 8,45zm841 116c0,1 -1,3 -2,4 -1,2 -2,3 -5,4 -2,0 -5,1 -9,2 -3,0 -8,1 -14,1 -5,0 -10,-1 -14,-1 -4,-1 -7,-2 -9,-2 -2,-1 -4,-2 -5,-4 -1,-1 -1,-3 -1,-4l0 -385 -1 0 -155 386c-1,2 -2,3 -3,4 -1,2 -3,3 -6,3 -2,1 -5,2 -8,2 -3,0 -7,1 -12,1 -5,0 -9,-1 -12,-1 -4,-1 -6,-1 -9,-2 -2,-1 -4,-2 -5,-3 -1,-1 -2,-2 -3,-4l-149 -386 0 0 0 385c0,1 0,3 -1,4 -1,2 -3,3 -5,4 -2,0 -6,1 -9,2 -4,0 -9,1 -15,1 -5,0 -10,-1 -14,-1 -4,-1 -7,-2 -9,-2 -2,-1 -4,-2 -4,-4 -1,-1 -2,-3 -2,-4l0 -407c0,-9 3,-16 8,-20 5,-4 11,-6 17,-6l36 0c7,0 14,0 19,2 6,1 11,3 15,6 4,3 8,7 10,11 3,5 6,10 8,16l126 320 2 0 131 -319c3,-6 5,-12 8,-17 4,-5 7,-9 10,-11 4,-3 8,-5 12,-7 5,-1 10,-1 16,-1l37 0c4,0 7,0 10,1 3,1 6,3 8,5 2,2 4,5 6,8 1,3 2,8 2,12l0 407zm566 -12c2,5 3,9 3,12 0,3 0,5 -2,7 -2,1 -5,2 -9,3 -4,0 -10,1 -17,1 -7,0 -13,-1 -17,-1 -4,0 -7,-1 -10,-2 -2,0 -3,-2 -4,-3 -1,-1 -2,-3 -3,-5l-38 -108 -184 0 -36 107c-1,2 -2,3 -3,5 -1,1 -3,3 -5,4 -2,1 -5,1 -9,2 -4,0 -9,1 -15,1 -7,0 -12,-1 -17,-1 -4,-1 -7,-2 -9,-4 -1,-1 -2,-3 -2,-7 0,-3 1,-7 3,-12l148 -410c1,-3 2,-5 4,-6 1,-2 3,-3 6,-4 3,-1 7,-2 11,-2 5,0 10,-1 17,-1 7,0 13,1 18,1 5,0 9,1 12,2 3,1 5,2 6,4 2,2 3,4 4,6l148 411zm-190 -363l0 0 -76 221 153 0 -77 -221zm717 359c0,4 -1,8 -2,12 -2,3 -4,5 -6,7 -3,2 -6,4 -9,5 -3,1 -6,1 -9,1l-19 0c-6,0 -12,0 -16,-2 -5,-1 -9,-3 -13,-6 -5,-4 -9,-8 -13,-14 -4,-5 -8,-13 -13,-22l-135 -251c-7,-13 -14,-26 -21,-41 -7,-14 -14,-28 -20,-41l-1 0c0,16 1,33 1,50 0,17 0,34 0,51l0 267c0,1 0,3 -1,4 -1,2 -3,3 -5,4 -2,0 -5,1 -9,2 -4,0 -8,1 -14,1 -6,0 -11,-1 -14,-1 -4,-1 -7,-2 -9,-2 -2,-1 -4,-2 -5,-4 -1,-1 -1,-3 -1,-4l0 -408c0,-9 2,-16 7,-20 6,-3 11,-5 17,-5l29 0c7,0 13,0 17,1 5,1 9,3 13,6 3,2 7,6 10,11 4,5 7,10 11,17l104 194c6,12 12,24 18,35 6,11 12,22 17,33 6,11 11,22 17,33 5,10 10,21 16,32l0 0c0,-18 -1,-37 -1,-57 0,-19 0,-38 0,-56l0 -239c0,-2 1,-3 2,-5 1,-1 2,-2 4,-3 3,-1 6,-2 9,-2 4,-1 9,-1 15,-1 5,0 10,0 14,1 4,0 7,1 9,2 2,1 3,2 4,3 1,2 2,3 2,5l0 407z"/>
     <path class="fil3" d="M15990 3187c0,36 -4,68 -12,97 -9,29 -21,53 -38,73 -17,20 -38,36 -63,47 -25,10 -55,16 -89,16 -33,0 -61,-5 -86,-15 -24,-10 -44,-24 -60,-43 -16,-19 -27,-43 -35,-71 -8,-28 -12,-60 -12,-96 0,-35 4,-67 13,-95 8,-28 21,-53 38,-72 17,-20 38,-36 63,-47 25,-10 55,-16 88,-16 33,0 61,5 85,15 24,10 45,24 61,43 16,19 28,42 36,69 7,28 11,60 11,95zm-62 4c0,-24 -2,-48 -7,-69 -4,-22 -11,-40 -22,-56 -10,-16 -24,-28 -41,-37 -17,-9 -39,-13 -64,-13 -26,0 -47,4 -64,14 -18,10 -32,22 -42,38 -11,16 -19,35 -24,56 -4,21 -7,43 -7,67 0,26 3,50 7,71 4,22 12,41 22,57 10,16 24,28 41,37 17,8 39,13 64,13 26,0 48,-5 65,-15 18,-9 32,-22 42,-38 11,-17 19,-35 23,-57 5,-21 7,-44 7,-68zm512 98c0,21 -4,40 -12,56 -8,16 -18,30 -32,41 -13,11 -29,20 -47,25 -19,6 -39,9 -60,9 -15,0 -28,-2 -41,-4 -13,-3 -24,-6 -34,-9 -10,-4 -18,-8 -25,-12 -6,-4 -11,-7 -14,-10 -2,-2 -4,-6 -6,-10 -1,-4 -1,-10 -1,-17 0,-5 0,-9 0,-12 1,-4 1,-6 2,-8 1,-2 2,-4 4,-4 1,-1 3,-2 5,-2 3,0 7,2 13,6 6,4 13,8 22,13 10,4 20,8 33,12 13,4 28,6 45,6 13,0 24,-1 35,-5 11,-3 20,-8 27,-14 8,-6 14,-14 18,-23 4,-9 6,-20 6,-31 0,-13 -3,-23 -8,-32 -6,-9 -14,-17 -23,-24 -9,-6 -20,-12 -32,-18 -12,-6 -24,-11 -37,-17 -12,-6 -24,-12 -36,-19 -12,-7 -23,-16 -32,-25 -9,-10 -17,-21 -22,-34 -6,-13 -9,-28 -9,-46 0,-19 3,-35 10,-49 7,-15 16,-27 28,-37 12,-9 26,-17 42,-22 17,-5 35,-8 54,-8 10,0 19,1 29,3 10,2 19,4 28,7 9,3 17,6 24,9 6,4 11,7 13,9 2,2 4,4 4,5 1,1 2,3 2,5 0,2 1,4 1,7 0,2 0,6 0,10 0,4 0,8 0,11 0,4 -1,6 -2,8 0,3 -1,4 -3,5 -1,1 -2,2 -4,2 -2,0 -6,-2 -12,-5 -5,-3 -11,-7 -19,-11 -8,-4 -17,-7 -28,-11 -10,-3 -22,-5 -35,-5 -13,0 -23,2 -32,5 -10,4 -17,8 -23,13 -6,6 -10,12 -13,20 -3,7 -5,15 -5,24 0,12 3,22 9,31 5,9 13,17 22,24 10,7 21,13 33,19 12,5 24,11 37,17 12,6 25,12 37,19 12,7 22,15 32,24 9,10 17,21 23,34 6,13 9,28 9,45z"/>
    </g>
   </g>
  </g>
 </g>
</svg>
